<?xml version="1.0" encoding="UTF-8"?>
<svg id="Calque_2" data-name="Calque 2" xmlns="http://www.w3.org/2000/svg" viewBox="0 0 551.72 551.72">
  <defs>
    <style>
      .cls-1 {
        fill: #e84b3c;
      }

      .cls-2 {
        fill: #2dab61;
      }

      .cls-3 {
        fill: #fff;
      }

      .cls-4 {
        fill: #111827;
        stroke: #111827;
        stroke-miterlimit: 10;
      }
    </style>
  </defs>
  <rect class="cls-1" x="427.14" y="427.14" width="99.28" height="99.28" rx="14.17" ry="14.17"/>
  <path class="cls-2" d="M336.98,526.41H53.66c-15.66,0-28.35-12.69-28.35-28.35V53.66c0-15.66,12.69-28.35,28.35-28.35h59.19c7.52,0,14.73,2.99,20.04,8.3l125.74,125.74c11.07,11.07,29.02,11.07,40.09,0l120.12-120.12c5.32-5.32,12.53-8.3,20.04-8.3h59.19c15.66,0,28.35,12.69,28.35,28.35v296.93c0,15.66-12.69,28.35-28.35,28.35h-42.58c-15.66,0-28.35-12.69-28.35-28.35v-149.22c0-12.63-15.27-18.95-24.2-10.02l-104.07,104.07c-11.07,11.07-29.02,11.07-40.09,0l-110.45-110.45c-8.94-8.94-24.22-2.59-24.2,10.05l.39,198.21c.03,15.63,12.71,28.29,28.35,28.29h68.19c2.43,0,4.81-.78,6.75-2.24,110.42-82.75,231.73,74.95,123.46,101.27-.66.16-14.29.24-14.29.24Z"/>
  <path class="cls-3" d="M336.94,457.42c-.23,12.52-16.46,19.05-41.61,17.09-20.33-1.58-29.91-18.91-30.47-33.09-.55-14.03,12.15-21.96,41.61-17.09,20.12,3.33,30.73,18.9,30.47,33.09Z"/>
  <circle class="cls-4" cx="323.05" cy="456.31" r="13.9"/>
</svg>