<?xml version="1.0" encoding="UTF-8"?>
<svg xmlns="http://www.w3.org/2000/svg" viewBox="0 0 549.28 549.28">
  <defs>
    <style>
      .cls-1, .cls-2 {
        fill: #1d1d1b;
      }

      .cls-3 {
        fill: #fff;
      }

      .cls-2 {
        stroke: #1d1d1b;
        stroke-miterlimit: 10;
      }
    </style>
  </defs>
  <g id="Calque_1" data-name="Calque 1">
    <rect class="cls-3" width="549.28" height="549.28" rx="42.52" ry="42.52"/>
  </g>
  <g id="Calque_3" data-name="Calque 3">
    <g>
      <polygon class="cls-1" points="34.93 513.82 34.78 35.84 106.02 35.46 106.05 442.7 394.52 442.7 394.52 513.82 34.93 513.82"/>
      <path class="cls-1" d="M105.52,35.96l.03,406.24v1h288.47v70.12H35.43l-.16-476.98,70.24-.38M106.52,34.96l-72.24.39.16,478.98h360.59v-72.12H106.55l-.03-407.25h0Z"/>
    </g>
    <polygon class="cls-2" points="442.91 513.93 515 513.93 515 35.41 442.88 35.41 442.88 83.49 370.76 83.49 370.76 155.61 442.88 155.61 442.91 513.93"/>
    <polygon class="cls-2" points="154.41 35.41 226.53 35.41 226.53 83.49 298.64 83.49 298.64 155.61 226.53 155.61 226.53 394.58 154.57 394.58 154.41 35.41"/>
    <polygon class="cls-2" points="298.49 227.72 370.76 227.72 370.76 155.61 298.64 155.61 298.49 227.72"/>
  </g>
</svg>